<svg width="18" height="18" viewBox="0 0 18 18" fill="none" xmlns="http://www.w3.org/2000/svg">
<path fill-rule="evenodd" clip-rule="evenodd" d="M0.600023 6.9001C0.600023 10.3795 3.42063 13.2001 6.90002 13.2001C8.3546 13.2001 9.69404 12.7071 10.7604 11.8792C10.8006 11.9642 10.8558 12.0438 10.9261 12.1141L15.9661 17.1541C16.2941 17.4821 16.826 17.4821 17.154 17.1541C17.482 16.826 17.482 16.2942 17.154 15.9661L12.114 10.9261C12.0437 10.8559 11.9641 10.8006 11.8791 10.7605C12.7071 9.69411 13.2 8.35467 13.2 6.9001C13.2 3.4207 10.3794 0.600098 6.90002 0.600098C3.42063 0.600098 0.600023 3.4207 0.600023 6.9001ZM2.28002 6.9001C2.28002 4.34854 4.34847 2.2801 6.90002 2.2801C9.45158 2.2801 11.52 4.34854 11.52 6.9001C11.52 9.45165 9.45158 11.5201 6.90002 11.5201C4.34847 11.5201 2.28002 9.45165 2.28002 6.9001Z" fill="#A3A3A3"/>
</svg>
